<svg height="496pt" viewBox="0 0 496 496" width="496pt" xmlns="http://www.w3.org/2000/svg"><path d="m488 248c0 132.546875-107.453125 240-240 240s-240-107.453125-240-240 107.453125-240 240-240 240 107.453125 240 240zm0 0" fill="#ffda44"/><path d="m248 496c-136.964844 0-248-111.035156-248-248s111.035156-248 248-248 248 111.035156 248 248c-.160156 136.902344-111.097656 247.839844-248 248zm0-480c-128.128906 0-232 103.871094-232 232s103.871094 232 232 232 232-103.871094 232-232c-.140625-128.070312-103.929688-231.859375-232-232zm0 0" fill="#231f20"/></svg>