<?xml version="1.0" encoding="UTF-8"?>
<svg xmlns="http://www.w3.org/2000/svg" xmlns:xlink="http://www.w3.org/1999/xlink" width="480pt" height="480pt" viewBox="0 0 480 480" version="1.1">
<g id="surface512612">
<path style="fill-rule:nonzero;fill:rgb(0%,0%,0%);fill-opacity:1;stroke-width:10;stroke-linecap:butt;stroke-linejoin:round;stroke:rgb(0%,0%,0%);stroke-opacity:1;stroke-miterlimit:10;" d="M 153.611003 79.800161 L 170.999396 79.800161 L 148.200691 113.99969 L 125.400515 79.800161 L 142.221959 79.800161 C 139.371016 50.94615 115.120334 28.499396 85.500574 28.499396 C 71.344525 28.499396 58.447545 33.629914 48.483972 42.148872 C 46.948056 43.556672 44.765672 44.016121 42.792395 43.343146 C 40.819119 42.671643 39.371559 40.976687 39.013718 38.92389 C 38.657351 36.869621 39.449606 34.7859 41.079768 33.487072 C 53.025453 23.276104 68.578993 17.100043 85.500574 17.100043 C 121.283141 17.100043 150.696739 44.753891 153.611003 79.800161 Z M 45.600632 91.199513 L 28.777716 91.199513 C 31.628658 120.053525 55.87934 142.500279 85.500574 142.500279 C 99.655149 142.500279 112.55213 137.369761 122.517175 128.850803 C 124.053091 127.443003 126.235476 126.985026 128.207279 127.656529 C 130.180556 128.328032 131.629588 130.022988 131.985956 132.077257 C 132.342324 134.130053 131.550068 136.213774 129.919906 137.512602 C 117.974222 147.725043 102.420681 153.899631 85.500574 153.899631 C 49.716533 153.899631 20.304409 126.245784 17.390145 91.199513 L 0.000279059 91.199513 L 22.800456 56.999985 Z M 45.600632 91.199513 " transform="matrix(2.652632,0,0,2.652632,13.276604,13.276604)"/>
<path style=" stroke:none;fill-rule:nonzero;fill:rgb(0%,0%,0%);fill-opacity:1;" d="M 240.078125 58.636719 C 195.191406 58.636719 153.933594 75.019531 122.246094 102.105469 C 117.921875 105.550781 115.820312 111.078125 116.765625 116.527344 C 117.714844 121.972656 121.554688 126.46875 126.789062 128.25 C 132.023438 130.035156 137.8125 128.816406 141.886719 125.082031 C 168.316406 102.484375 202.527344 88.875 240.078125 88.875 C 318.648438 88.875 382.976562 148.417969 390.539062 224.957031 L 345.917969 224.957031 L 406.398438 315.675781 L 466.875 224.957031 L 420.75 224.957031 C 413.019531 131.992188 334.996094 58.636719 240.078125 58.636719 Z M 73.757812 164.476562 L 13.277344 255.195312 L 59.40625 255.195312 C 67.136719 348.160156 145.15625 421.515625 240.078125 421.515625 C 284.960938 421.515625 326.21875 405.136719 357.90625 378.046875 C 362.230469 374.601562 364.332031 369.074219 363.386719 363.628906 C 362.441406 358.179688 358.597656 353.683594 353.363281 351.902344 C 348.132812 350.121094 342.34375 351.335938 338.269531 355.070312 C 311.835938 377.667969 277.625 391.277344 240.078125 391.277344 C 161.503906 391.277344 97.175781 331.734375 89.613281 255.195312 L 134.238281 255.195312 Z M 73.757812 164.476562 "/>
</g>
</svg>
